<svg id="baseline-shopping_cart-24px" xmlns="http://www.w3.org/2000/svg" width="24" height="24" viewBox="0 0 24 24">
  <path id="Path_92" data-name="Path 92" d="M0,0H24V24H0Z" fill="none"/>
  <g id="surface1" transform="translate(0.083 0.007)">
    <path  id="Path_6302" data-name="Path 6302" d="M9.121,1a.967.967,0,0,0-.371.14S7.6,1.864,6.366,2.645,3.758,4.287,3.445,4.46a.43.43,0,0,0-.058.029,3.067,3.067,0,0,0-1.419,2.5.691.691,0,0,0,0,.086,3.834,3.834,0,0,0,0,.4V18.33c0,1.721,2.01,2.553,3.918,2.553A5.915,5.915,0,0,0,7.7,20.6a1.087,1.087,0,0,0,.623-.908V11.159c0-2.089.454-3.072,1.815-3.889.364-.18,4.174-2.809,4.174-2.809a1.369,1.369,0,0,0,.367-.821V3.553a.959.959,0,0,0-.454-.821.816.816,0,0,0-.907,0c-.094.09-5.629,3.817-6.81,4.455-1.181.724-2.28.9-2.553.537a1.057,1.057,0,0,1-.173-.594V7.071a1.153,1.153,0,0,1,.569-1.023c.511-.281,1.775-1.091,3.007-1.873.522-.328.587-.364.994-.623a.907.907,0,0,0,1.786-.285V1.907a.9.9,0,0,0-.3-.684A.917.917,0,0,0,9.121,1Zm7.264,3.176a.9.9,0,0,0-.4.173s-4.57,3.076-5.362,3.6l-.029.029A3.367,3.367,0,0,0,9.376,9.6a2.86,2.86,0,0,0-.144.936V20.883c0,1.721,1.988,2.723,3.8,2.723a3.808,3.808,0,0,0,2.1-.54c1.088-.634,6.356-4.736,6.356-4.736a.9.9,0,0,0,.454-.709V6.816a.906.906,0,0,0-.54-.908.983.983,0,0,0-.994.086c-1.451,1.088-5.362,4.163-6.27,4.71-1.268.724-2.467.908-2.921.454-.184-.184-.173-.353-.173-.627a1.51,1.51,0,0,1,.058-.4,1.349,1.349,0,0,1,.54-.652c.018-.014.011-.014.029-.029.655-.436,2.661-1.8,3.972-2.7a.907.907,0,0,0,1.757-.31V5.087a.911.911,0,0,0-.3-.688A.931.931,0,0,0,16.384,4.176Zm3.745,6.641v1.815L15.589,16.15V14.335Z" transform="translate(0 0)" />
  </g>
</svg>
