<svg xmlns="http://www.w3.org/2000/svg" width="19.727" height="23.149" viewBox="0 0 19.727 23.149">
  <g id="customers_1_" data-name="customers (1)" transform="translate(0.352 0.35)">
    <path id="Path_5727" data-name="Path 5727" d="M368.889,5.368h.084a2.059,2.059,0,0,0,2.057-2.057V2.553A2.059,2.059,0,0,0,368.972.5h-.084a2.059,2.059,0,0,0-2.057,2.057v.758A2.059,2.059,0,0,0,368.889,5.368Zm-1.234-2.815a1.236,1.236,0,0,1,1.234-1.234h.084a1.235,1.235,0,0,1,1.234,1.234v.758a1.235,1.235,0,0,1-1.234,1.234h-.084a1.236,1.236,0,0,1-1.234-1.234Zm0,0" transform="translate(-354.105 -0.496)"  stroke="#A8A8A8" stroke-width="1.3"/>
    <path id="Path_5728" data-name="Path 5728" d="M339.221,94.668H338.8a.411.411,0,0,0-.347.19l-.466.732-.561-.314a.412.412,0,0,0-.411.005l-.493.292-.411-.7a.411.411,0,0,0-.355-.2h-.48a2.165,2.165,0,0,0-2.156,2.361v4.485a.411.411,0,0,0,.08.243l1.331,1.815.3,6.642a1.415,1.415,0,0,0,1.419,1.369h2.018a1.415,1.415,0,0,0,1.419-1.365l.3-6.647,1.322-1.816a.411.411,0,0,0,.079-.242V97.029a2.165,2.165,0,0,0-2.155-2.361Zm1.334,2.3c0,.014,0,.028,0,.042v4.37l-1.316,1.808a.412.412,0,0,0-.078.224l-.3,6.774a.6.6,0,0,1-.6.576h-2.018a.6.6,0,0,1-.6-.58l-.3-6.77a.414.414,0,0,0-.079-.225l-1.325-1.807v-4.37c0-.014,0-.028,0-.042a1.342,1.342,0,0,1,1.335-1.477h.244l.5.856a.411.411,0,0,0,.569.144l.641-.381.694.388a.411.411,0,0,0,.548-.138l.554-.869h.2a1.342,1.342,0,0,1,1.335,1.477Zm0,0" transform="translate(-322.361 -89.134)"  stroke="#A8A8A8" stroke-width="1.3"/>
    <path id="Path_5729" data-name="Path 5729" d="M202.338,5.368h.084a2.059,2.059,0,0,0,2.057-2.057V2.553A2.059,2.059,0,0,0,202.421.5h-.084a2.059,2.059,0,0,0-2.057,2.057v.758A2.059,2.059,0,0,0,202.338,5.368ZM201.1,2.553a1.235,1.235,0,0,1,1.234-1.234h.084a1.235,1.235,0,0,1,1.234,1.234v.758a1.235,1.235,0,0,1-1.234,1.234h-.084A1.235,1.235,0,0,1,201.1,3.311Zm0,0" transform="translate(-198.299 -0.496)"  stroke="#A8A8A8" stroke-width="1.3"/>
    <path id="Path_5730" data-name="Path 5730" d="M172.662,94.668h-.426a.411.411,0,0,0-.347.19l-.466.732-.561-.314a.411.411,0,0,0-.411.005l-.493.292-.411-.7a.411.411,0,0,0-.355-.2h-.48a2.164,2.164,0,0,0-2.156,2.361v4.485a.411.411,0,0,0,.08.243l1.331,1.815.3,6.642a1.416,1.416,0,0,0,1.419,1.369H171.7a1.415,1.415,0,0,0,1.419-1.365l.3-6.647,1.322-1.816a.412.412,0,0,0,.079-.242V97.029a2.164,2.164,0,0,0-2.155-2.361Zm1.335,2.3a.355.355,0,0,0,0,.042v4.37l-1.316,1.808a.411.411,0,0,0-.078.224l-.3,6.774a.6.6,0,0,1-.6.576h-2.018a.6.6,0,0,1-.6-.58l-.3-6.77a.412.412,0,0,0-.079-.225l-1.325-1.807v-4.37c0-.014,0-.028,0-.042a1.342,1.342,0,0,1,1.335-1.477h.244l.5.856a.411.411,0,0,0,.569.143l.64-.38.694.388a.411.411,0,0,0,.548-.138l.554-.869h.2A1.342,1.342,0,0,1,174,96.967Zm0,0" transform="translate(-166.547 -89.134)"  stroke="#A8A8A8" stroke-width="1.3"/>
  </g>
</svg>
