<svg id="Group_7251" data-name="Group 7251" xmlns="http://www.w3.org/2000/svg" width="24" height="24" viewBox="0 0 24 24">
  <rect id="Rectangle_3129" data-name="Rectangle 3129" width="24" height="24" fill="none"/>
  <g id="smartphone_5_" data-name="smartphone (5)" transform="translate(0.397 1.398)">
    <path id="Path_5719" data-name="Path 5719" d="M23.459,0h-8.9A1.559,1.559,0,0,0,13,1.557V19.648A1.559,1.559,0,0,0,14.557,21.2h8.9a1.559,1.559,0,0,0,1.557-1.557V1.557A1.559,1.559,0,0,0,23.459,0ZM13.707,2.827h10.6v13.43h-10.6Zm.85-2.12h8.9a.851.851,0,0,1,.85.85V2.12h-10.6V1.557A.851.851,0,0,1,14.557.707Zm8.9,19.791h-8.9a.851.851,0,0,1-.85-.85V16.964h10.6v2.684A.851.851,0,0,1,23.459,20.5Z" transform="translate(-7.406)" fill="#9e9e9e" stroke="#9e9e9e" stroke-miterlimit="10" stroke-width="0.7"/>
    <path id="Path_5720" data-name="Path 5720" d="M26.871,49a.871.871,0,1,0,.871.871A.872.872,0,0,0,26.871,49Zm0,1.307a.436.436,0,1,1,.436-.436A.436.436,0,0,1,26.871,50.307Z" transform="translate(-15.269 -31.141)" fill="#9e9e9e" stroke="#9e9e9e" stroke-miterlimit="10" stroke-width="0.7"/>
    <path id="Path_5723" data-name="Path 5723" d="M55.508,4.379a.353.353,0,1,0-.5.5,3.391,3.391,0,0,1,0,4.789.353.353,0,1,0,.5.5A4.1,4.1,0,0,0,55.508,4.379Z" transform="translate(-33.501 -2.765)" fill="#9e9e9e" stroke="#9e9e9e" stroke-miterlimit="10" stroke-width="0.7"/>
    <path id="Path_5724" data-name="Path 5724" d="M51.3,6.655a.353.353,0,0,0-.5.5,2.321,2.321,0,0,1,0,3.279.353.353,0,1,0,.5.5,3.028,3.028,0,0,0,0-4.278Z" transform="translate(-31.778 -4.236)" fill="#9e9e9e" stroke="#9e9e9e" stroke-miterlimit="10" stroke-width="0.7"/>
    <path id="Path_5725" data-name="Path 5725" d="M1.7,4.879a.353.353,0,1,0-.5-.5,4.1,4.1,0,0,0,0,5.789.353.353,0,0,0,.5-.5A3.39,3.39,0,0,1,1.7,4.879Z" transform="translate(-0.001 -2.765)" fill="#9e9e9e" stroke="#9e9e9e" stroke-miterlimit="10" stroke-width="0.7"/>
    <path id="Path_5726" data-name="Path 5726" d="M6.48,6.379a.353.353,0,0,0-.5,0,3.028,3.028,0,0,0,0,4.278.353.353,0,1,0,.5-.5,2.321,2.321,0,0,1,0-3.279A.354.354,0,0,0,6.48,6.379Z" transform="translate(-2.295 -4.058)" fill="#9e9e9e" stroke="#9e9e9e" stroke-miterlimit="10" stroke-width="0.7"/>
  </g>
</svg>
